<svg width="32" height="32" viewBox="0 0 32 32" fill="none" xmlns="http://www.w3.org/2000/svg">
<g clip-path="url(#clip0_6954_39383)">
<path d="M18.2366 17.8928C15.2086 11.7845 12.3589 5.93437 11.904 4.8928L11.0775 3H14.8652H18.6529L23.5142 12.6503L28.3754 22.3007L32 29H23.7419L18.2366 17.8928Z" fill="#002142"/>
<path fill-rule="evenodd" clip-rule="evenodd" d="M9.29032 15.091C6.41032 16.6317 4.61695 18.798 2.34667 23.4801C1.05566 26.1416 0 28.463 0 28.6381C0 28.8131 1.05979 28.9562 2.35561 28.9562C5.75105 28.9562 8.5588 26.3446 11.7388 20.227C13.2308 17.3572 14.4516 14.8527 14.4516 14.6617C14.4516 14.0288 10.6908 14.3416 9.29032 15.091Z" fill="#18C981"/>
</g>
<defs>
<clipPath id="clip0_6954_39383">
<rect width="32" height="26" fill="white" transform="translate(0 3)"/>
</clipPath>
</defs>
</svg>
