<svg width="32" height="32" viewBox="0 0 32 32" fill="none" xmlns="http://www.w3.org/2000/svg">
<g clip-path="url(#clip0_6954_39383)">
<path d="M10.9394 17.2374C9.12304 13.4486 7.41361 9.82007 7.14074 9.17402L6.64496 8H8.91705H11.1891L14.1052 13.9857L17.0213 19.9714L19.1956 24.0995H14.2419L10.9394 17.2374Z" fill="#002142"/>
<path fill-rule="evenodd" clip-rule="evenodd" d="M5.5729 15.4996C3.8453 16.4552 2.76953 17.7989 1.40767 20.703C0.633247 22.3538 0 23.7937 0 23.9023C0 24.0108 0.635724 24.0996 1.41304 24.0996C3.44983 24.0996 5.13409 22.4797 7.04167 18.6852C7.93664 16.9052 8.66896 15.3518 8.66896 15.2333C8.66896 14.8407 6.41296 15.0347 5.5729 15.4996Z" fill="#18C981"/>
<path d="M16.0638 14.2866H29.9647C30.9706 14.2866 31.7861 15.1021 31.7861 16.1081V16.1081C31.7861 17.1141 30.9706 17.9296 29.9647 17.9296H17.8482L16.0638 14.2866Z" fill="#18C981"/>
<path d="M13.0149 8H28.3552C30.3671 8 31.9981 9.631 31.9981 11.643V11.643H14.7852L13.0149 8Z" fill="#002142"/>
<path d="M19.0961 20.4565H32V20.4565C32 22.4685 30.369 24.0995 28.357 24.0995L21.0172 24.0995L19.0961 20.4565Z" fill="#002142"/>
</g>
<defs>
<clipPath id="clip0_6954_39383">
<rect width="31.88" height="32" fill="white"/>
</clipPath>
</defs>
</svg>
